<svg xmlns="http://www.w3.org/2000/svg" viewBox="0 0 2000 390.21"><defs><style>.cls-1{fill:#fff}.cls-2{fill:url(#未命名的渐变_7)}</style><linearGradient id="未命名的渐变_7" x1="816.73" y1="195.1" x2="1492.16" y2="195.1" gradientUnits="userSpaceOnUse"><stop offset="0" stop-color="#4190ff"/><stop offset="1" stop-color="#1be1f6"/></linearGradient></defs><g id="图层_2" data-name="图层 2"><g id="图层_1-2" data-name="图层 1"><path class="cls-1" d="M1788 389.24h-175.45v-77.1H1788c7.13 0 17.72-1.53 26.06-5.83 8.08-4.17 16.35-10.47 16.35-32.72 0-21.89-8.25-28-16.31-32-7.22-3.59-17.1-5.59-27.1-5.59h-69.4c-5.4 0-33.74-.78-61.47-16.17-36.18-20.08-56.13-55.13-56.13-100.46 0-45.17 19.81-80.33 55.78-100.75a133.14 133.14 0 0 1 61.8-16.83h161.92v77.1h-161.76c-.77 0-13.5.64-24.5 7.14-7.5 4.44-16.12 11.39-16.12 33.34s8.58 28.58 16.05 32.83c9.44 5.37 20.87 6.65 24.48 6.69H1787c22.16 0 43.38 4.73 61.37 13.67 38.12 18.94 59.11 54.2 59.11 101 0 46.59-20.64 81.92-58.11 101.25-24.31 12.56-48.91 14.43-61.37 14.43zm-1498.84-3.85c-11.54 0-23.71-3.26-31.17-12.66L72.29 146.09l1 241.22H1l-1-347C0 23.94 9.41 11.27 24.9 5.87s33.65-1.38 43.85 11.47l184.74 228.57V2h72.29l1 346.76c0 16.4-9.41 29.08-24.9 34.48a38.48 38.48 0 0 1-12.72 2.15z"/><path class="cls-2" d="M937.33 390.21c-107.58 0-195.1-87.52-195.1-195.1S829.75 0 937.33 0a193.92 193.92 0 0 1 137.17 56.36l.16.15 52.64 52.64-54.52 54.52-52.56-52.56a118 118 0 1 0 .56 167.43l53.91-53.91 54.52 54.52-53.91 53.91a193.83 193.83 0 0 1-137.97 57.15z"/><path class="cls-2" d="M1379.86 390.21a194 194 0 0 1-137-56.17l-.38-.38-137.2-139.15L1241.9 57.14A193.83 193.83 0 0 1 1379.86 0C1487.44 0 1575 87.52 1575 195.1s-87.56 195.11-195.14 195.11zm-82.66-110.9a118 118 0 1 0-.76-167.67l-82.64 83.1z"/><path class="cls-1" d="M442.45 386.35L552.52 98.73a84.56 84.56 0 0 1 5.35-10.8 79.54 79.54 0 0 1 4.62 9.35l111.4 289.07h82.88L634.2 68.95A164.41 164.41 0 0 0 619 40.2C597.63 8.45 573.9 1.79 557.75 1.79c-29.44 0-49.78 21.48-61.67 39.5a172.83 172.83 0 0 0-15.37 29.34L359.64 386.35z"/><circle cx="1966.27" cy="356.47" r="33.73" fill="#1be1f6"/></g></g></svg>